<?xml version="1.0" standalone="no"?><!DOCTYPE svg PUBLIC "-//W3C//DTD SVG 1.1//EN" "http://www.w3.org/Graphics/SVG/1.1/DTD/svg11.dtd"><svg t="1588591593003" class="icon" viewBox="0 0 1024 1024" version="1.1" xmlns="http://www.w3.org/2000/svg" p-id="5642" xmlns:xlink="http://www.w3.org/1999/xlink" width="200" height="200"><defs><style type="text/css"></style></defs><path d="M512 512m-512 0a512 512 0 1 0 1024 0 512 512 0 1 0-1024 0Z" fill="#1296db" p-id="5643" data-spm-anchor-id="a313x.7781069.0.i5" class="selected"></path><path d="M514.752 555.936c-89.6 0.192-149.312-120.064-149.312-184.608 0-64.512 0.256-179.328 149.312-179.328 149.088 0 149.312 114.816 149.312 179.328 0 64.544-59.68 184.48-149.312 184.64z m69.76 211.36H224v-60.96c8.832-23.072 21.216-46.784 37.44-59.52 38.208-29.856 148.128-79.52 148.128-79.52l69.44 132.8 12.608-32.192-19.584-39.68 39.104-39.712 39.104 39.68-19.52 39.712 10.56 31.488 71.36-132.096s13.6 6.144 32.864 15.36a31.712 31.712 0 0 0-13.6 16.928l-0.96 5.92c0 1.504 0.064 3.2 0.256 6.112 0.256 4.544 0.288 7.616 0.032 10.496-0.224 2.976-0.704 4.576-0.576 4.608v-0.032c-0.192 0-0.48 0-3.36-0.352l-2.144-0.32c-10.144-1.376-16.352-1.28-25.088 2.08-17.472 6.016-28.064 30.688-21.952 48.48 1.824 7.36 6.336 12.384 14.496 18.784l2.688 2.08c4.16 3.264 4.512 3.744 4.512 4.32 0 3.872-0.48 4.672-3.584 6.752-0.864 0.608-4.768 3.008-5.536 3.52-6.144 4.064-10.208 8.064-12.576 14.912-4.352 12.672-1.856 28.928 6.4 40.352z m250.4-47.584c3.36 22.912 22.88 19.52 26.24 29.632 0 6.4-3.36 29.632-13.12 32.64-9.76 0-22.88-3.36-32.64 0-6.4 3.392-13.12 6.4-16.512 13.152-6.4 16.512 6.4 29.632 0 36.032-9.76 6.4-29.632 16.48-36.032 9.76-9.76-9.76-9.76-22.912-29.632-22.912-26.24 0-26.24 26.272-39.392 26.272-13.12 0-36.032-9.76-36.032-19.52 3.36-13.12 9.76-22.912-3.36-36.032-16.512-13.12-36.032 0-42.784-6.4-9.76-6.4-13.12-22.912-9.76-32.64 3.392-9.792 26.272-9.792 26.272-36.064 0-19.52-22.88-22.88-26.24-36-3.392-9.792 3.36-26.272 13.12-29.664 16.48-6.4 26.24 6.4 42.752-6.4 9.76-9.728 6.4-32.64 6.4-39.36 3.36-9.792 16.48-13.12 26.24-13.12 19.552 0 13.152 22.88 39.424 26.24 26.24 0 22.912-9.76 36.032-26.24 16.48 0 29.632 6.368 32.64 13.12 6.4 13.12-6.4 32.64 13.12 45.76 16.512 9.792 32.704-3.36 42.784 0 6.4 3.392 9.76 13.152 13.12 26.304-6.4 19.168-36.032 15.808-32.64 45.44z m-118.208-65.664c-78.784 19.52-49.152 134.368 26.272 121.568 75.776-16.512 65.664-138.08-26.24-121.568z" fill="#FFFFFF" p-id="5644"></path></svg>