<?xml version="1.0" standalone="no"?><!DOCTYPE svg PUBLIC "-//W3C//DTD SVG 1.1//EN" "http://www.w3.org/Graphics/SVG/1.1/DTD/svg11.dtd"><svg t="1588846277774" class="icon" viewBox="0 0 1024 1024" version="1.1" xmlns="http://www.w3.org/2000/svg" p-id="4498" xmlns:xlink="http://www.w3.org/1999/xlink" width="200" height="200"><defs><style type="text/css"></style></defs><path d="M512 512m-460.8 0a460.8 460.8 0 1 0 921.6 0 460.8 460.8 0 1 0-921.6 0Z" fill="#2c2c2c" p-id="4499" data-spm-anchor-id="a313x.7781069.0.i4" class="selected"></path><path d="M514.56 709.12s-2.56 2.56 0 0h-5.12 5.12z" fill="#E6E9EE" p-id="4500"></path><path d="M883.2 785.92C801.28 898.56 665.6 972.8 512 972.8S222.72 898.56 140.8 785.92c64-71.68 153.6-107.52 227.84-125.44-5.12 51.2 20.48 122.88 20.48 122.88 28.16-64 120.32-71.68 120.32-71.68s92.16 5.12 122.88 71.68c0 0 28.16-66.56 20.48-122.88 76.8 17.92 166.4 53.76 230.4 125.44z" fill="#E6E9EE" p-id="4501"></path><path d="M624.64 609.28c0 10.24-5.12 58.88-110.08 102.4h-5.12c-104.96-40.96-110.08-92.16-110.08-102.4 0-17.92 5.12-35.84 12.8-56.32 28.16 33.28 64 56.32 102.4 56.32 35.84 0 74.24-20.48 102.4-56.32 5.12 20.48 7.68 38.4 7.68 56.32z" fill="#FFD05B" p-id="4502"></path><path d="M576 727.04l-25.6 46.08h-79.36l-25.6-46.08c30.72-12.8 64-15.36 64-15.36s33.28 0 66.56 15.36zM448 970.24c20.48 2.56 43.52 2.56 64 2.56s43.52 0 64-2.56l-25.6-194.56h-79.36l-23.04 194.56z" fill="#90ACDF" p-id="4503"></path><path d="M624.64 606.72s5.12 58.88-112.64 102.4c0 0 92.16 5.12 122.88 71.68 0 2.56 56.32-135.68-10.24-174.08z" fill="#FFFFFF" p-id="4504"></path><path d="M399.36 606.72c-61.44 33.28-10.24 174.08-5.12 171.52 28.16-64 122.88-71.68 122.88-71.68-125.44-40.96-117.76-99.84-117.76-99.84z" fill="#FFFFFF" p-id="4505"></path><path d="M619.52 570.88c-30.72 33.28-66.56 51.2-107.52 51.2s-76.8-20.48-107.52-51.2c0-5.12 2.56-10.24 5.12-15.36 28.16 33.28 64 56.32 102.4 56.32s74.24-20.48 102.4-56.32c2.56 2.56 2.56 7.68 5.12 15.36z" fill="#F9B54C" p-id="4506"></path><path d="M711.68 460.8c-15.36 25.6-40.96 40.96-56.32 35.84-33.28 64-87.04 112.64-140.8 112.64s-107.52-48.64-140.8-112.64c-17.92 2.56-40.96-12.8-56.32-35.84-17.92-30.72-17.92-61.44 0-74.24 2.56-2.56 10.24-2.56 12.8-2.56 12.8 30.72 28.16 48.64 28.16 48.64-15.36-92.16 51.2-102.4 40.96-189.44 0 0 43.52 94.72 166.4 28.16l-10.24 17.92c171.52-40.96 112.64 163.84 112.64 168.96 17.92-25.6 30.72-48.64 40.96-71.68 2.56 0 5.12 0 10.24 2.56 10.24 5.12 7.68 40.96-7.68 71.68z" fill="#FFD05B" p-id="4507"></path><path d="M609.28 143.36c12.8 0 35.84 12.8 35.84 12.8-61.44-71.68-163.84-25.6-163.84-25.6C517.12 102.4 547.84 102.4 547.84 102.4c-143.36-20.48-168.96 64-168.96 64-5.12-10.24-5.12-25.6-5.12-30.72-10.24 17.92 0 51.2 0 51.2-10.24-28.16-46.08-20.48-46.08-20.48 30.72 5.12 35.84 25.6 35.84 25.6-76.8 28.16-64 107.52-64 107.52l17.92-20.48c-20.48 87.04 33.28 153.6 33.28 153.6-15.36-92.16 51.2-102.4 40.96-189.44 0 0 43.52 94.72 166.4 28.16l-10.24 17.92c171.52-40.96 112.64 168.96 112.64 168.96 61.44-79.36 51.2-158.72 51.2-158.72l5.12 28.16c25.6-135.68-107.52-184.32-107.52-184.32z" fill="#324A5E" p-id="4508"></path></svg>